<svg width="90" height="22" viewBox="0 0 90 22" fill="none" xmlns="http://www.w3.org/2000/svg">
<path fill-rule="evenodd" clip-rule="evenodd" d="M2.58362 2.3145C3.53939 1.67614 4.66297 1.33561 5.81227 1.33594C6.57525 1.33594 7.33076 1.48627 8.03564 1.77833C8.74053 2.0704 9.38097 2.49848 9.9204 3.03813C10.4598 3.57779 10.8877 4.21843 11.1795 4.92349C11.4713 5.62854 11.6214 6.38419 11.6212 7.14726C11.6212 8.29671 11.2804 9.42035 10.6418 10.3761C10.0033 11.3318 9.0957 12.0766 8.03385 12.5164C6.972 12.9562 5.8036 13.0712 4.6764 12.8468C3.54921 12.6224 2.51386 12.0688 1.7013 11.2559C0.888741 10.443 0.335466 9.40737 0.11145 8.27997C-0.112565 7.15258 0.00273679 5.98406 0.442783 4.92221C0.882829 3.86035 1.62785 2.95286 2.58362 2.3145ZM3.74871 10.2339C4.35951 10.6422 5.07764 10.8601 5.81227 10.8601C6.797 10.8601 7.74141 10.469 8.43788 9.77272C9.13434 9.07649 9.52583 8.13211 9.52627 7.14726C9.5266 6.41254 9.30906 5.69422 8.90116 5.08316C8.49326 4.4721 7.91333 3.99577 7.23471 3.71437C6.5561 3.43298 5.80929 3.35917 5.08873 3.50231C4.36818 3.64544 3.70625 3.99908 3.18667 4.51849C2.66709 5.0379 2.3132 5.69976 2.16976 6.42034C2.02632 7.14092 2.09977 7.88785 2.38083 8.56668C2.66188 9.2455 3.13791 9.82573 3.74871 10.2339ZM5.7811 14.2761C7.90178 14.2887 9.62094 16.0181 9.62094 18.1388C9.62094 20.2595 7.90178 21.9685 5.7811 21.9559C3.66042 21.9433 1.94128 20.2139 1.94128 18.0931C1.94128 15.9724 3.66042 14.2635 5.7811 14.2761Z" fill="white"/>
<path fill-rule="evenodd" clip-rule="evenodd" d="M86.843 1.24183C86.843 1.08516 86.9378 0.944044 87.0828 0.884723L89.4677 0.0291184C89.7215 -0.0747228 89.9996 0.111972 89.9996 0.386224V19.2608C89.9996 19.4739 89.8533 19.6467 89.6402 19.6467H87.2288C87.0157 19.6467 86.843 19.4739 86.843 19.2608V18.7353C86.7184 18.8204 86.5905 18.9024 86.4593 18.9811C85.3663 19.6177 84.139 19.936 82.7776 19.936C81.4353 19.936 80.2176 19.6177 79.1246 18.9811C78.0316 18.3252 77.1591 17.4475 76.5071 16.3479C75.8743 15.2483 75.5579 14.0234 75.5579 12.673C75.5579 11.3227 75.8743 10.1074 76.5071 9.02707C77.1591 7.94679 78.0316 7.08835 79.1246 6.45175C80.2176 5.79586 81.4353 5.4679 82.7776 5.4679C84.139 5.4679 85.3663 5.78622 86.4593 6.42281C86.5905 6.49924 86.7184 6.579 86.843 6.6621V1.24183ZM86.843 12.9261V12.2884C86.8016 11.6439 86.6324 11.0677 86.3353 10.5598C85.9902 9.96961 85.5203 9.50852 84.9259 9.17654C84.3315 8.82612 83.6411 8.6509 82.8549 8.6509C82.0879 8.6509 81.3976 8.82612 80.7839 9.17654C80.1895 9.50852 79.7197 9.96961 79.3745 10.5598C79.0485 11.15 78.8855 11.8324 78.8855 12.607C78.8855 13.3816 79.0485 14.0733 79.3745 14.6819C79.7197 15.2905 80.1895 15.7701 80.7839 16.1205C81.3976 16.4525 82.0879 16.6185 82.8549 16.6185C83.6411 16.6185 84.3315 16.4525 84.9259 16.1205C85.5395 15.7701 86.0093 15.2905 86.3353 14.6819C86.6324 14.1581 86.8016 13.5729 86.843 12.9261Z" fill="white"/>
<path d="M23.2385 19.936C22.4669 19.936 21.7242 19.8395 21.0104 19.6466C20.2966 19.4344 19.6407 19.1451 19.0427 18.7786C18.5447 18.4572 18.1002 18.0824 17.7092 17.6541C17.5754 17.5074 17.5872 17.2826 17.7276 17.1422L19.2119 15.6579C19.3705 15.4992 19.6296 15.51 19.7882 15.6686C20.1995 16.0801 20.6552 16.4029 21.1551 16.6373C21.7917 16.9073 22.5054 17.0424 23.2964 17.0424C24.0101 17.0424 24.5503 16.9363 24.9168 16.7241C25.2833 16.5119 25.4666 16.2032 25.4666 15.7981C25.4666 15.3737 25.293 15.0458 24.9457 14.8143C24.5985 14.5828 24.1452 14.3899 23.5857 14.2356C23.0456 14.0619 22.4669 13.8883 21.8495 13.7147C21.2515 13.5411 20.6728 13.3096 20.1134 13.0202C19.5732 12.7116 19.1295 12.2968 18.7823 11.776C18.4351 11.2551 18.2615 10.58 18.2615 9.75048C18.2615 8.8631 18.464 8.10111 18.8691 7.46452C19.2935 6.82792 19.8819 6.336 20.6342 5.98877C21.4059 5.64153 22.3222 5.4679 23.3832 5.4679C24.502 5.4679 25.4859 5.67047 26.3347 6.07558C27.1043 6.41762 27.7602 6.91887 28.3023 7.57932C28.4231 7.72639 28.4056 7.93995 28.2711 8.0745L26.7827 9.56284C26.6206 9.72493 26.3549 9.7094 26.1953 9.54483C25.8616 9.20075 25.4933 8.93171 25.0904 8.73771C24.5695 8.48693 23.9715 8.36154 23.2964 8.36154C22.6598 8.36154 22.1678 8.45799 21.8206 8.6509C21.4734 8.84381 21.2998 9.12353 21.2998 9.49005C21.2998 9.87587 21.4734 10.1749 21.8206 10.3871C22.1678 10.5993 22.6115 10.7825 23.1517 10.9369C23.7111 11.0912 24.2898 11.2648 24.8878 11.4577C25.5052 11.6313 26.0839 11.8821 26.624 12.21C27.1835 12.5187 27.6368 12.9431 27.984 13.4832C28.3313 14.0041 28.5049 14.6889 28.5049 15.5377C28.5049 16.8881 28.0323 17.9587 27.087 18.7496C26.1418 19.5405 24.8589 19.936 23.2385 19.936Z" fill="white"/>
<path fill-rule="evenodd" clip-rule="evenodd" d="M53.6977 18.9811C54.7907 19.6177 56.0083 19.936 57.3506 19.936C58.7121 19.936 59.9394 19.6177 61.0324 18.9811C62.1254 18.3252 62.9883 17.4475 63.6211 16.3479C64.2731 15.2483 64.5991 14.0234 64.5991 12.673C64.5991 11.3227 64.2731 10.1074 63.6211 9.02707C62.9883 7.9275 62.1254 7.05941 61.0324 6.42281C59.9394 5.78622 58.7121 5.4679 57.3506 5.4679C56.0083 5.4679 54.7907 5.79586 53.6977 6.45175C52.6046 7.08835 51.7321 7.94679 51.0802 9.02707C50.4474 10.1074 50.131 11.3227 50.131 12.673C50.131 14.0234 50.4474 15.2483 51.0802 16.3479C51.7321 17.4475 52.6046 18.3252 53.6977 18.9811ZM59.499 16.1205C58.9045 16.4525 58.2142 16.6185 57.428 16.6185C56.661 16.6185 55.9706 16.4525 55.357 16.1205C54.7626 15.7701 54.2928 15.2905 53.9476 14.6819C53.6216 14.0733 53.4586 13.3816 53.4586 12.607C53.4586 11.8324 53.6216 11.15 53.9476 10.5598C54.2928 9.96961 54.7626 9.50852 55.357 9.17654C55.9706 8.82612 56.661 8.6509 57.428 8.6509C58.2142 8.6509 58.9045 8.82612 59.499 9.17654C60.0934 9.50852 60.5632 9.96961 60.9084 10.5598C61.2536 11.15 61.4261 11.8324 61.4261 12.607C61.4261 13.3816 61.2536 14.0733 60.9084 14.6819C60.5824 15.2905 60.1126 15.7701 59.499 16.1205Z" fill="white"/>
<path d="M66.7602 19.6466C66.5471 19.6466 66.3744 19.4739 66.3744 19.2608V6.14311C66.3744 5.93002 66.5471 5.75728 66.7602 5.75728H69.1715C69.3846 5.75728 69.5574 5.93002 69.5574 6.14311V7.19999C69.5764 7.1722 69.5957 7.14463 69.6152 7.11728C70.4061 6.0177 71.5925 5.4679 73.1744 5.4679C73.8688 5.4679 74.4958 5.59331 75.0552 5.84409C75.3796 5.9895 75.6552 6.20463 75.8295 6.35975C75.9535 6.47014 75.9738 6.65056 75.8922 6.79518L74.7939 8.74095C74.6655 8.96842 74.3525 9.00256 74.1375 8.85414C73.9973 8.75737 73.8499 8.67998 73.6952 8.62197C73.3866 8.50622 73.0297 8.44835 72.6246 8.44835C71.7372 8.44835 71.0042 8.72806 70.4254 9.2875C69.8467 9.84693 69.5574 10.7246 69.5574 11.9207V19.2608C69.5574 19.4739 69.3846 19.6466 69.1715 19.6466H66.7602Z" fill="white"/>
<path d="M29.6563 5.75728C29.383 5.75728 29.1963 6.03352 29.2983 6.28705L34.5727 19.4047C34.6315 19.5509 34.7732 19.6466 34.9307 19.6466H36.2586C36.4174 19.6466 36.56 19.5494 36.6179 19.4015L39.7627 11.37L42.9076 19.4015C42.9655 19.5494 43.1081 19.6466 43.2669 19.6466H44.5948C44.7523 19.6466 44.894 19.5509 44.9528 19.4047L50.2272 6.28705C50.3291 6.03352 50.1425 5.75728 49.8692 5.75728H47.4095C47.2484 5.75728 47.1042 5.85743 47.0479 6.00843L43.8728 14.5324L40.781 6.01151C40.7256 5.8589 40.5806 5.75728 40.4183 5.75728H39.1072C38.9449 5.75728 38.7999 5.8589 38.7445 6.01151L35.6527 14.5324L32.4776 6.00843C32.4213 5.85743 32.2771 5.75728 32.116 5.75728H29.6563Z" fill="white"/>
</svg>
